<?xml version="1.0" encoding="utf-8"?>
<!-- Generator: Adobe Illustrator 24.0.1, SVG Export Plug-In . SVG Version: 6.00 Build 0)  -->
<svg version="1.1" id="Layer_1" xmlns="http://www.w3.org/2000/svg" xmlns:xlink="http://www.w3.org/1999/xlink" x="0px" y="0px"
	 viewBox="0 0 42.5 21.7" style="enable-background:new 0 0 42.5 21.7;" xml:space="preserve">
<g>
	<path d="M41.8,15c-0.4,0.6-0.7,1.3-1.1,1.9c-0.6,1-1.2,2-2,2.8c-1.6,1.7-4.5,1.1-5.4-1.1c-0.7-1.8-0.8-3.7-0.8-5.6
		c0-0.7,0-1.4,0-2.2c-0.6,0.3-1.1,0.6-1.6,1c-0.2,0.1-0.2,0.4-0.3,0.7c-0.3,2.3-0.9,4.5-2.1,6.5c-0.4,0.7-0.9,1.4-1.5,1.9
		c-0.3,0.3-0.8,0.5-1.2,0.6c-1.5,0.4-2.5-0.4-2.7-2c-0.1-1.2,0.1-2.3,0.4-3.3c0-0.1,0-0.1,0-0.3c-0.2,0.2-0.3,0.4-0.5,0.6
		c-0.7,1.1-1.5,2.1-2.5,2.9c-2.2,1.9-6,1.2-7.4-1.7c-0.3-0.7-0.5-1.5-0.7-2.2c0-0.1-0.1-0.2-0.1-0.5c-0.4,0.8-0.8,1.5-1.2,2.1
		c-0.4,0.7-0.9,1.4-1.4,2c-1,1.2-2.2,1.1-3.1-0.3c-0.1-0.2-0.2-0.4-0.3-0.6c-0.6,0.4-1.1,0.8-1.8,1.1C3.3,20.1,2.1,20,1,19.4
		c-1.1-0.6-1.3-2-0.5-2.9c0.7-0.8,1.6-1,2.5-1c0.8,0,0.8,0,1-0.7C5,10.9,6,7,7,3.1c0-0.2,0.1-0.3,0.1-0.5C6.6,2.5,6.2,2.4,5.8,2.3
		c-0.1,0-0.2-0.1-0.3-0.1C4.8,2,4.5,1.7,4.6,1.3c0-0.3,0.6-0.7,1.2-0.7c0.4,0,0.9,0.1,1.3,0.1c1.7,0.1,3.4,0.1,5.1,0.2
		c0.6,0,1.1,0.3,1.6,0.8c0.3,0.3,0.2,0.5-0.2,0.6c-0.3,0.1-0.7,0.1-1,0.1c-0.5,0-1,0.1-1.5,0.1c-0.1,0.9-0.1,1.9-0.2,2.8
		c-0.4,4-1.4,7.8-3.3,11.4c-0.3,0.5,0,0.8,0.2,1.1c0.5,1,0.6,1,1.2,0.1c1.2-1.9,2.4-3.8,3.5-5.8c0.3-0.5,0.3-1.2,0.4-1.9
		c0.5-2.5,1.3-4.9,3-7C16.8,2,18,1,19.6,0.8c0.7-0.1,1.3-0.1,2,0c1.4,0.2,2.2,1,2.3,2.5c0.2,2-0.3,4-1.1,5.8
		c-0.2,0.4-0.7,0.6-1.2,0.6c-0.4-0.1-0.6-0.4-0.5-0.9c0.5-1.3,0.8-2.7,0.8-4.1c0-0.6-0.1-1.1-0.2-1.7c-0.1,0-0.1,0-0.2,0
		c-0.1,0.1-0.2,0.2-0.3,0.4c-2,2.5-3.3,5.4-3.7,8.6c-0.2,1.9-0.3,3.8-0.4,5.8c0,0.2,0,0.4,0,0.6c0.1,0.5,0.5,0.8,1,0.6
		c0.6-0.2,1.1-0.5,1.6-0.9c1.2-0.9,2-2.1,2.8-3.3c0.5-0.8,1-1.5,1.5-2.3c0.5-0.8,0.8-0.8,1.6-0.3c0.1-1,0.3-2,0.4-2.9
		c0.3-2.2,0.6-4.4,0.9-6.6c0.2-1.5,0.8-2,2-2c1.2,0.1,2.1,1,2.1,2.3c0,2.2-0.1,4.3-0.2,6.5c0,0.2,0,0.4,0,0.7c0,0.1,0,0.1,0.1,0.3
		c0.5-0.3,1-0.5,1.5-0.9c0.2-0.1,0.3-0.4,0.3-0.6c0.4-1.4,0.7-2.9,1.1-4.3c0.4-1.5,1.2-2.7,2.5-3.7c1.1-0.8,2.2-1,3.5-0.5
		c1.1,0.4,1.5,1.4,1.3,2.7c-0.3,1.3-0.9,2.3-1.8,3.2c-0.5,0.5-1,0.9-1.4,1.4c-0.2,0.2-0.4,0.5-0.4,0.7c-0.5,3.1-1.1,6.1-1,9.2
		c0,0.5,0.1,1.1,0.2,1.7c0.7-0.1,1-0.4,1.3-0.8c0.6-0.8,1.2-1.7,1.7-2.6c0.7-1.2,1.5-2.4,2.1-3.6C41.7,12.1,43.5,10.4,41.8,15z
		 M25,20.3c0.6-1,0.7-2.9,0.4-4.4C24.5,16.9,24.3,19.4,25,20.3z M3.3,16.9C3,17,2.8,17.1,2.6,17.2C2.3,17.4,2,17.7,1.8,18
		c-0.1,0.1,0.1,0.4,0.2,0.6c0.2-0.1,0.4-0.1,0.5-0.2C3,18.1,3.2,17.6,3.3,16.9z M39.1,2c-0.1,0-0.1,0-0.2-0.1
		c-0.3,0.9-0.5,1.8-0.8,2.7C39,3.8,39.5,3,39.1,2z"/>
</g>
</svg>
