<?xml version="1.0" encoding="utf-8"?>
<!-- Generator: Adobe Illustrator 24.0.1, SVG Export Plug-In . SVG Version: 6.00 Build 0)  -->
<svg version="1.1" id="Layer_1" xmlns="http://www.w3.org/2000/svg" xmlns:xlink="http://www.w3.org/1999/xlink" x="0px" y="0px"
	 viewBox="0 0 22 22" style="enable-background:new 0 0 22 22;" xml:space="preserve">
<path d="M20.1,1.9C18.9,0.8,17.5,0,14.4,0H7.6C4.5,0,3.1,0.8,1.9,1.9C0.8,3.1,0,4.5,0,7.6v6.9c0,3.1,0.8,4.5,1.9,5.7
	C3.1,21.2,4.5,22,7.6,22h6.9c3.1,0,4.5-0.8,5.7-1.9c1.1-1.2,1.9-2.6,1.9-5.6V7.6C22,4.5,21.2,3.1,20.1,1.9z M11,18c-3.9,0-7-3.1-7-7
	s3.1-7,7-7c0.6,0,1,0.4,1,1c0,0.6-0.4,1-1,1c-2.8,0-5,2.2-5,5s2.2,5,5,5c0.6,0,1,0.4,1,1S11.6,18,11,18z M15.3,14.6
	c-0.3,0.5-0.9,0.6-1.4,0.3c-0.5-0.3-0.6-0.9-0.3-1.4l1-1.4L9,12c-0.6,0-1-0.4-1-1s0.4-1,1-1l5.6,0l-1-1.4c-0.3-0.5-0.2-1.1,0.3-1.4
	C14.4,6.9,15,7,15.3,7.4l2.4,3.6L15.3,14.6z"/>
</svg>
